# Blender v2.78 (sub 0) OBJ File: ''
# www.blender.org
mtllib arrow.mtl
o Cylinder
v 0.000000 -1.000000 -0.300000
v 0.000000 1.000000 -0.300000
v 0.212132 -1.000000 -0.212132
v 0.212132 1.000000 -0.212132
v 0.300000 -1.000000 0.000000
v 0.300000 1.000000 0.000000
v 0.212132 -1.000000 0.212132
v 0.212132 1.000000 0.212132
v -0.000000 -1.000000 0.300000
v -0.000000 1.000000 0.300000
v -0.212132 -1.000000 0.212132
v -0.212132 1.000000 0.212132
v -0.300000 -1.000000 -0.000000
v -0.300000 1.000000 -0.000000
v -0.212132 -1.000000 -0.212132
v -0.212132 1.000000 -0.212132
vn 0.3827 0.0000 -0.9239
vn 0.9239 0.0000 -0.3827
vn 0.9239 0.0000 0.3827
vn 0.3827 0.0000 0.9239
vn -0.3827 0.0000 0.9239
vn -0.9239 0.0000 0.3827
vn 0.0000 1.0000 0.0000
vn -0.9239 0.0000 -0.3827
vn -0.3827 0.0000 -0.9239
vn 0.0000 -1.0000 0.0000
usemtl None
s off
f 2//1 3//1 1//1
f 4//2 5//2 3//2
f 6//3 7//3 5//3
f 8//4 9//4 7//4
f 10//5 11//5 9//5
f 12//6 13//6 11//6
f 14//7 8//7 6//7
f 14//8 15//8 13//8
f 16//9 1//9 15//9
f 9//10 11//10 15//10
f 2//1 4//1 3//1
f 4//2 6//2 5//2
f 6//3 8//3 7//3
f 8//4 10//4 9//4
f 10//5 12//5 11//5
f 12//6 14//6 13//6
f 6//7 4//7 14//7
f 2//7 16//7 14//7
f 14//7 12//7 10//7
f 10//7 8//7 14//7
f 4//7 2//7 14//7
f 14//8 16//8 15//8
f 16//9 2//9 1//9
f 15//10 1//10 3//10
f 3//10 5//10 7//10
f 7//10 9//10 15//10
f 11//10 13//10 15//10
f 15//10 3//10 7//10
o Cone
v 0.000000 1.000000 -1.000000
v 0.000000 3.000000 0.000000
v 0.707107 1.000000 -0.707107
v 1.000000 1.000000 0.000000
v 0.707107 1.000000 0.707107
v -0.000000 1.000000 1.000000
v -0.707107 1.000000 0.707107
v -1.000000 1.000000 -0.000000
v -0.707107 1.000000 -0.707107
vn 0.3474 0.4194 -0.8387
vn 0.8387 0.4194 -0.3474
vn 0.8387 0.4194 0.3474
vn 0.3474 0.4194 0.8387
vn -0.3474 0.4194 0.8387
vn -0.8387 0.4194 0.3474
vn -0.8387 0.4194 -0.3474
vn -0.3474 0.4194 -0.8387
vn 0.0000 -1.0000 0.0000
usemtl None
s off
f 17//11 18//11 19//11
f 19//12 18//12 20//12
f 20//13 18//13 21//13
f 21//14 18//14 22//14
f 22//15 18//15 23//15
f 23//16 18//16 24//16
f 24//17 18//17 25//17
f 25//18 18//18 17//18
f 21//19 23//19 25//19
f 25//19 17//19 19//19
f 19//19 20//19 25//19
f 21//19 22//19 23//19
f 23//19 24//19 25//19
f 25//19 20//19 21//19
